<svg width="44" height="44" viewBox="0 0 44 44" fill="none" xmlns="http://www.w3.org/2000/svg">
<rect width="44" height="44" rx="10" fill="#191919"/>
<path d="M3.72177 21.8445C3.69231 20.3519 4.19804 19.0802 5.23896 18.0294C6.2897 16.9787 7.52211 16.4631 8.93619 16.4828C9.91819 16.4828 10.7922 16.7086 11.5581 17.1604C12.3339 17.6023 12.928 18.216 13.3405 19.0016L12.1473 19.8707C11.4305 18.545 10.3552 17.8821 8.92146 17.8821C7.92964 17.8821 7.08512 18.2553 6.3879 19.0016C5.69068 19.7479 5.34207 20.6956 5.34207 21.8445C5.34207 22.9738 5.66613 23.9067 6.31425 24.6432C6.97219 25.3797 7.79707 25.748 8.78889 25.748C9.65305 25.748 10.3503 25.4926 10.8806 24.982C11.4108 24.4713 11.7251 23.8036 11.8233 22.9787H8.36172V21.6677H13.4141V27H12.3683L11.9706 25.3944C11.2832 26.6023 10.2079 27.2062 8.7447 27.2062C7.34044 27.2357 6.14731 26.73 5.16531 25.689C4.18331 24.6383 3.70213 23.3568 3.72177 21.8445ZM14.0896 23.9656L15.5037 23.2291C15.8081 24.9476 16.741 25.8069 18.3024 25.8069C18.9603 25.8069 19.4906 25.6547 19.8932 25.3502C20.3057 25.036 20.5119 24.6383 20.5119 24.1571C20.5119 23.6563 20.3008 23.2635 19.8785 22.9787C19.4562 22.6841 18.7836 22.4484 17.8605 22.2717C15.6608 21.8494 14.561 20.8379 14.561 19.2373C14.561 18.4222 14.8899 17.7594 15.5479 17.2487C16.2058 16.7381 17.0503 16.4828 18.0814 16.4828C19.034 16.4828 19.8392 16.7037 20.4972 17.1456C21.1551 17.5875 21.6314 18.2258 21.926 19.0605L20.6592 19.797C20.2173 18.5204 19.3531 17.8821 18.0667 17.8821C17.4873 17.8821 17.0111 18 16.6379 18.2356C16.2647 18.4713 16.0782 18.7954 16.0782 19.2078C16.0782 19.6595 16.2893 20.0278 16.7116 20.3126C17.1436 20.5875 17.8261 20.8183 18.759 21.0049C19.8883 21.2406 20.7279 21.6088 21.2779 22.1096C21.8278 22.6006 22.1027 23.2537 22.1027 24.0687C22.1027 24.9525 21.7492 25.6988 21.0422 26.3077C20.3351 26.9067 19.4219 27.2062 18.3024 27.2062C17.1535 27.2062 16.2156 26.9165 15.489 26.3371C14.7721 25.7578 14.3057 24.9673 14.0896 23.9656ZM22.2859 27L26.4398 16.689H28.0012L32.155 27H30.4611L29.3416 24.1424H25.0994L23.9799 27H22.2859ZM25.6297 22.7283H28.8113L27.5446 19.473L27.2205 18.5155L26.8964 19.473L25.6297 22.7283ZM32.4355 27V16.689H36.9281C38.0869 16.689 39.0002 16.9836 39.6679 17.5728C40.3357 18.1522 40.6696 18.9574 40.6696 19.9885C40.6696 21.0098 40.3357 21.815 39.6679 22.4042C39.0002 22.9836 38.0869 23.2733 36.9281 23.2733H34.0263V27H32.4355ZM34.0263 21.8592H36.8839C37.6008 21.8592 38.1458 21.6972 38.519 21.3731C38.8921 21.0491 39.0787 20.5875 39.0787 19.9885C39.0787 19.3797 38.8921 18.9132 38.519 18.5892C38.1458 18.2651 37.6008 18.1031 36.8839 18.1031H34.0263V21.8592Z" fill="#A1A1A1"/>
</svg>
